<svg id="Capa_1" enable-background="new 0 0 512 512" height="512" viewBox="0 0 512 512" width="512" xmlns="http://www.w3.org/2000/svg"><g><g><path d="m498.39 263.19v198.64c0 23.29-18.93 42.22-42.22 42.22h-400.34c-23.29 0-42.22-18.93-42.22-42.22v-198.64c0-23.29 18.93-42.22 42.22-42.22h400.34c23.29 0 42.22 18.93 42.22 42.22z" fill="#e4ebf2"/></g><path d="m498.39 263.19v198.64c0 23.29-18.93 42.22-42.22 42.22h-200.17v-283.08h200.17c23.29 0 42.22 18.93 42.22 42.22z" fill="#ccd6e7"/><g><path d="m256 482h-211.41c-8.04 0-14.59-6.55-14.59-14.59v-209.8c0-8.05 6.55-14.59 14.59-14.59h226.153v-30h-226.153c-24.59 0-44.59 20-44.59 44.59v209.8c0 24.59 20 44.59 44.59 44.59h211.41l14.743-11.424z" fill="#ccd6e7"/></g><path d="m512 257.61v209.8c0 24.59-20 44.59-44.59 44.59h-211.41v-30h211.41c8.05 0 14.59-6.55 14.59-14.59v-209.8c0-8.05-6.54-14.59-14.59-14.59h-211.41v-30h211.41c24.59 0 44.59 20 44.59 44.59z" fill="#9db7cd"/><path d="m107.661 368.839c-11.271-4.157-21.75-8.689-24.752-10.005-2.172-1.683-3.217-4.307-2.81-7.143.263-1.831 1.574-6.301 8.057-8.254 13.394-4.037 25.676 5.729 25.972 5.968 4.227 3.511 10.503 2.953 14.043-1.259 3.554-4.228 3.007-10.536-1.22-14.089-.83-.697-20.59-16.993-44.563-9.77-11.966 3.605-20.428 13.017-22.086 24.563-1.55 10.803 3.131 21.193 12.217 27.117.442.288.906.541 1.387.755.52.232 12.895 5.741 26.834 10.882 4.25 1.568 13.99 6.04 12.625 13.681-.991 5.55-7.618 11.292-16.991 11.292-9.31 0-18.281-3.767-23.999-10.076-3.708-4.092-10.033-4.403-14.125-.694s-4.403 10.033-.694 14.125c9.445 10.422 23.957 16.645 38.818 16.645 18.38 0 33.806-11.682 36.68-27.776 2.154-12.063-3.386-27.844-25.393-35.962z" fill="#574d8c"/><path d="m214.897 332.445c0-5.523-4.477-10-10-10h-49.775c-5.523 0-10 4.477-10 10s4.477 10 10 10h14.787v80.131c0 5.523 4.477 10 10 10s10-4.477 10-10v-80.131h14.988c5.523 0 10-4.477 10-10z" fill="#574d8c"/><path d="m461.034 322.445h-49.775c-5.523 0-10 4.477-10 10s4.477 10 10 10h14.787v80.131c0 5.523 4.477 10 10 10s10-4.477 10-10v-80.131h14.988c5.523 0 10-4.477 10-10s-4.477-10-10-10z" fill="#3e3373"/><path d="m389.36 355.87c0-18.43-15.588-33.424-34.75-33.424h-23.95c-.005 0-.01.001-.015.001s-.01-.001-.015-.001c-5.523 0-10 4.477-10 10v90.131c0 5.523 4.477 10 10 10s10-4.477 10-10v-28.869l31.223 35.476c1.977 2.246 4.737 3.393 7.511 3.393 2.346 0 4.703-.821 6.603-2.493 4.146-3.649 4.548-9.968.9-14.114l-24.271-27.577c15.323-3.481 26.764-16.737 26.764-32.523zm-34.749 13.423c-3.196 0-8.844.024-13.842.049-.025-4.897-.05-10.392-.05-13.473 0-2.627-.014-8.311-.029-13.424h13.92c7.995 0 14.75 6.147 14.75 13.424s-6.754 13.424-14.749 13.424z" fill="#3e3373"/><g><path d="m287.459 38.262-31.459-38.262c-80.1 0-145.27 65.17-145.27 145.27 0 80.11 65.17 145.28 145.27 145.28l31.459-29.047z" fill="#9df"/></g><path d="m401.27 145.27c0 80.11-65.17 145.28-145.27 145.28v-290.55c80.1 0 145.27 65.17 145.27 145.27z" fill="#80bfff"/><g><path d="m256 196.14c-26.73 0-48.47-21.74-48.47-48.47 0-11.01 3.59-21.37 10.38-29.97 5.14-6.5 4.03-15.94-2.47-21.07-6.5-5.14-15.93-4.03-21.07 2.47-10.86 13.75-16.84 31-16.84 48.57 0 43.27 35.2 78.47 78.47 78.47l8.694-14.088z" fill="#80bfff"/></g><g><path d="m262.409 91.499-6.409-27.089c-8.28 0-15 6.72-15 15v45.23c0 8.28 6.72 15 15 15l6.409-26.726z" fill="#80bfff"/></g><path d="m256 139.64v-75.23c8.28 0 15 6.72 15 15v45.23c0 8.28-6.72 15-15 15z" fill="#69f"/><path d="m334.47 147.67c0 43.27-35.2 78.47-78.47 78.47v-30c26.73 0 48.47-21.74 48.47-48.47 0-11-3.59-21.37-10.39-29.98-5.13-6.5-4.02-15.93 2.48-21.06 6.5-5.14 15.93-4.03 21.07 2.47 10.86 13.76 16.84 31.01 16.84 48.57z" fill="#69f"/><g><path d="m300.811 419.05-33.53-88.87c-.04-.09-.07-.18-.11-.28-1.87-4.53-6.24-7.45-11.14-7.45h-.01c-.01 0-.01 0-.02 0-4.9.01-9.26 2.95-11.11 7.48-.03.07-.06.15-.09.23l-33.85 88.86c-1.96 5.16.63 10.94 5.79 12.9 5.16 1.97 10.94-.62 12.9-5.78l5.98-15.7h40.57l5.91 15.67c1.95 5.16 7.72 7.77 12.89 5.82s7.77-7.72 5.82-12.88zm-57.57-28.61 12.76-33.5 12.64 33.5z" fill="#574d8c"/><path d="m294.991 431.93c-5.17 1.95-10.94-.66-12.89-5.82l-5.91-15.67h-20.19v-20h12.64l-12.64-33.5v-34.49h.02.01c4.9 0 9.27 2.92 11.14 7.45.04.1.07.19.11.28l33.53 88.87c1.95 5.16-.65 10.93-5.82 12.88z" fill="#3e3373"/></g></g></svg>